<?xml version="1.0" encoding="utf-8"?>
<!-- Generator: Adobe Illustrator 23.0.1, SVG Export Plug-In . SVG Version: 6.00 Build 0)  -->
<svg version="1.1" id="Layer_1" xmlns="http://www.w3.org/2000/svg" xmlns:xlink="http://www.w3.org/1999/xlink" x="0px" y="0px"
	 viewBox="0 0 60 553.54" style="enable-background:new 0 0 60 553.54;" xml:space="preserve">
<style type="text/css">
	.st0{fill:none;stroke:#000000;stroke-width:0.3;}
</style>
<text transform="matrix(1 0 0 1 -876.5928 -487.3706)" style="fill:none;stroke:#000000;stroke-width:2; font-family:'Montserrat-Regular'; font-size:150px;">Dienst</text>
<g>
	<path class="st0" d="M57.34,50.33l0.1,0.29c0.13,7.65-2.21,13.72-7.01,18.21c-4.8,4.49-11.47,6.74-20,6.74
		c-8.56,0-15.51-2.75-20.85-8.25c-5.34-5.5-8.01-12.58-8.01-21.24V31.97c0-8.63,2.6-15.71,7.81-21.24c5.21-5.53,11.98-8.3,20.31-8.3
		c8.79,0,15.66,2.25,20.61,6.76c4.95,4.51,7.36,10.65,7.23,18.43l-0.1,0.29H43.58c0-4.69-1.12-8.28-3.37-10.77s-5.75-3.74-10.5-3.74
		c-4.26,0-7.65,1.73-10.16,5.2c-2.51,3.46-3.76,7.88-3.76,13.24v14.2c0,5.43,1.32,9.88,3.96,13.34c2.64,3.46,6.2,5.2,10.69,5.2
		c4.46,0,7.75-1.2,9.89-3.59c2.13-2.39,3.2-5.95,3.2-10.67H57.34z"/>
	<path class="st0" d="M38.52,136.93c-1.63,2.77-3.7,4.9-6.2,6.4c-2.51,1.5-5.39,2.25-8.64,2.25c-5.57,0-9.92-1.78-13.06-5.35
		c-3.14-3.56-4.71-9.11-4.71-16.63V91.71h14.21v32.06c0,3.85,0.65,6.62,1.95,8.3c1.3,1.68,3.22,2.52,5.76,2.52
		c2.28,0,4.23-0.37,5.86-1.1c1.63-0.73,2.96-1.82,4-3.25V91.71h14.26v52.83H39.79L38.52,136.93z"/>
	<path class="st0" d="M36.1,237.54H21.85v-76.17H36.1V237.54z"/>
	<path class="st0" d="M33.96,260.77v12.94h8.89v10.01h-8.89v26.9c0,2.05,0.42,3.52,1.27,4.39c0.85,0.88,1.99,1.32,3.42,1.32
		c0.75,0,1.39-0.04,1.93-0.12c0.54-0.08,1.16-0.22,1.88-0.42l1.22,10.3c-1.43,0.49-2.83,0.85-4.2,1.1s-2.85,0.37-4.44,0.37
		c-4.92,0-8.7-1.35-11.35-4.05c-2.65-2.7-3.98-6.98-3.98-12.84v-26.95h-7.71v-10.01h7.71v-12.94H33.96z"/>
	<path class="st0" d="M38.52,393.93c-1.63,2.77-3.7,4.9-6.2,6.4c-2.51,1.5-5.39,2.25-8.64,2.25c-5.57,0-9.92-1.78-13.06-5.35
		c-3.14-3.56-4.71-9.11-4.71-16.63v-31.88h14.21v32.06c0,3.85,0.65,6.62,1.95,8.3c1.3,1.68,3.22,2.52,5.76,2.52
		c2.28,0,4.23-0.37,5.86-1.1c1.63-0.73,2.96-1.82,4-3.25v-38.52h14.26v52.83H39.79L38.52,393.93z"/>
	<path class="st0" d="M38.52,468.93c-1.63,2.77-3.7,4.9-6.2,6.4c-2.51,1.5-5.39,2.25-8.64,2.25c-5.57,0-9.92-1.78-13.06-5.35
		c-3.14-3.56-4.71-9.11-4.71-16.63v-31.88h14.21v32.06c0,3.85,0.65,6.62,1.95,8.3c1.3,1.68,3.22,2.52,5.76,2.52
		c2.28,0,4.23-0.37,5.86-1.1c1.63-0.73,2.96-1.82,4-3.25v-38.52h14.26v52.83H39.79L38.52,468.93z"/>
	<path class="st0" d="M44.75,512.97l-5.22-0.15c-2.12,0-3.86,0.44-5.22,1.32s-2.41,2.12-3.12,3.71v35.69H16.96v-52.83H30.2
		l0.63,7.81c1.24-2.77,2.84-4.92,4.81-6.47c1.97-1.55,4.24-2.32,6.81-2.32c0.72,0,1.38,0.06,1.98,0.17c0.6,0.11,1.21,0.25,1.83,0.42
		L44.75,512.97z"/>
</g>
</svg>
