<?xml version="1.0" encoding="utf-8"?>
<!-- Generator: Adobe Illustrator 23.0.1, SVG Export Plug-In . SVG Version: 6.00 Build 0)  -->
<svg version="1.1" id="Layer_1" xmlns="http://www.w3.org/2000/svg" xmlns:xlink="http://www.w3.org/1999/xlink" x="0px" y="0px"
	 viewBox="0 0 196 55" style="enable-background:new 0 0 196 55;" xml:space="preserve">
<style type="text/css">
	.st0{fill:none;stroke:#000000;stroke-width:0.3;}
</style>
<text transform="matrix(1 0 0 1 -876.5928 -487.3706)" style="fill:none;stroke:#000000;stroke-width:2; font-family:'Montserrat-Regular'; font-size:150px;">Dienst</text>
<g>
	<path class="st0" d="M32.79,15.69l-3.69,4.59c-2.72-2.94-6.62-4.75-10.42-4.75c-7.48,0-13.35,5.77-13.35,13.14
		s5.88,13.19,13.35,13.19c3.74,0,7.59-1.71,10.42-4.43l3.74,4.17c-3.79,3.74-9.19,6.14-14.48,6.14c-10.95,0-19.44-8.28-19.44-19.02
		c0-10.63,8.6-18.8,19.66-18.8C23.87,9.92,29.16,12.11,32.79,15.69z"/>
	<path class="st0" d="M64.68,47.47h-6.14v-5.56c-1.92,3.95-5.5,5.72-10.15,5.77c-6.52,0-10.42-4.17-10.42-10.95V19.05h6.14v15.97
		c0,4.27,2.51,6.89,6.62,6.89c4.91-0.11,7.8-3.9,7.8-8.87v-14h6.14V47.47z"/>
	<path class="st0" d="M74.03,47.47V7.83h6.14v39.64H74.03z"/>
	<path class="st0" d="M105.6,45.65c-2.24,1.34-4.59,2.08-7,2.08c-4.27,0-7.96-2.46-7.96-8.28V24.71h-4.01v-4.59h4.01v-7.8h6.09v7.8
		h8.39v4.59h-8.39v13.62c0,2.94,1.12,3.85,3.04,3.85c1.28,0,2.62-0.43,4.27-1.23L105.6,45.65z"/>
	<path class="st0" d="M137.06,47.47h-6.14v-5.56c-1.92,3.95-5.5,5.72-10.15,5.77c-6.52,0-10.42-4.17-10.42-10.95V19.05h6.14v15.97
		c0,4.27,2.51,6.89,6.62,6.89c4.91-0.11,7.8-3.9,7.8-8.87v-14h6.14V47.47z"/>
	<path class="st0" d="M171.95,47.47h-6.14v-5.56c-1.92,3.95-5.5,5.72-10.15,5.77c-6.52,0-10.42-4.17-10.42-10.95V19.05h6.14v15.97
		c0,4.27,2.51,6.89,6.62,6.89c4.91-0.11,7.8-3.9,7.8-8.87v-14h6.14V47.47z"/>
	<path class="st0" d="M187.17,24.71c1.92-3.85,5.34-5.88,9.83-5.88v5.88c-5.72-0.32-9.35,3.04-9.83,7.91v14.85h-6.14V19.05h6.14
		V24.71z"/>
</g>
</svg>
