<?xml version="1.0" encoding="utf-8"?>
<!-- Generator: Adobe Illustrator 23.0.1, SVG Export Plug-In . SVG Version: 6.00 Build 0)  -->
<svg version="1.1" id="Layer_1" xmlns="http://www.w3.org/2000/svg" xmlns:xlink="http://www.w3.org/1999/xlink" x="0px" y="0px"
	 viewBox="0 0 196 55" style="enable-background:new 0 0 196 55;" xml:space="preserve">
<style type="text/css">
	.st0{fill:none;stroke:#000000;stroke-width:0.3;}
</style>
<text transform="matrix(1 0 0 1 -876.5928 -487.3706)" style="fill:none;stroke:#000000;stroke-width:2; font-family:'Montserrat-Regular'; font-size:150px;">Dienst</text>
<g>
	<path class="st0" d="M33.73,34.7l0.06,0.18c0.08,4.63-1.34,8.31-4.24,11.03c-2.91,2.72-6.95,4.08-12.11,4.08
		c-5.19,0-9.39-1.67-12.63-5c-3.23-3.33-4.85-7.62-4.85-12.86v-8.55c0-5.22,1.58-9.51,4.73-12.86c3.15-3.35,7.26-5.03,12.3-5.03
		c5.32,0,9.48,1.37,12.48,4.1c3,2.73,4.46,6.45,4.38,11.16l-0.06,0.18h-8.4c0-2.84-0.68-5.01-2.04-6.52s-3.48-2.26-6.36-2.26
		c-2.58,0-4.63,1.05-6.15,3.15c-1.52,2.1-2.28,4.77-2.28,8.02v8.6c0,3.29,0.8,5.98,2.4,8.08c1.6,2.1,3.76,3.15,6.48,3.15
		c2.7,0,4.7-0.72,5.99-2.17c1.29-1.45,1.94-3.6,1.94-6.46H33.73z"/>
	<path class="st0" d="M58.77,44.75c-0.99,1.68-2.24,2.97-3.76,3.87s-3.26,1.36-5.23,1.36c-3.37,0-6.01-1.08-7.91-3.24
		c-1.9-2.16-2.85-5.52-2.85-10.07V17.37h8.61v19.42c0,2.33,0.39,4.01,1.18,5.02c0.79,1.02,1.95,1.53,3.49,1.53
		c1.38,0,2.56-0.22,3.55-0.67c0.99-0.45,1.79-1.1,2.43-1.97V17.37h8.64v32h-7.36L58.77,44.75z"/>
	<path class="st0" d="M82.49,49.37h-8.64V3.23h8.64V49.37z"/>
	<path class="st0" d="M99.85,9.53v7.84h5.38v6.06h-5.38v16.29c0,1.24,0.26,2.13,0.77,2.66c0.51,0.53,1.2,0.8,2.07,0.8
		c0.45,0,0.84-0.02,1.17-0.07c0.32-0.05,0.71-0.13,1.14-0.25l0.74,6.24c-0.87,0.3-1.71,0.52-2.54,0.67
		c-0.83,0.15-1.72,0.22-2.69,0.22c-2.98,0-5.27-0.82-6.88-2.46c-1.61-1.64-2.41-4.23-2.41-7.78V23.43h-4.67v-6.06h4.67V9.53H99.85z"
		/>
	<path class="st0" d="M130.28,44.75c-0.99,1.68-2.24,2.97-3.76,3.87c-1.52,0.91-3.26,1.36-5.23,1.36c-3.37,0-6.01-1.08-7.91-3.24
		c-1.9-2.16-2.85-5.52-2.85-10.07V17.37h8.61v19.42c0,2.33,0.39,4.01,1.18,5.02c0.79,1.02,1.95,1.53,3.49,1.53
		c1.38,0,2.56-0.22,3.55-0.67c0.99-0.45,1.79-1.1,2.42-1.97V17.37h8.63v32h-7.36L130.28,44.75z"/>
	<path class="st0" d="M164.47,44.75c-0.99,1.68-2.24,2.97-3.76,3.87c-1.52,0.91-3.26,1.36-5.23,1.36c-3.37,0-6.01-1.08-7.91-3.24
		c-1.9-2.16-2.85-5.52-2.85-10.07V17.37h8.61v19.42c0,2.33,0.39,4.01,1.18,5.02c0.79,1.02,1.95,1.53,3.49,1.53
		c1.38,0,2.56-0.22,3.55-0.67c0.99-0.45,1.79-1.1,2.42-1.97V17.37h8.63v32h-7.36L164.47,44.75z"/>
	<path class="st0" d="M195.94,24.79l-3.17-0.09c-1.28,0-2.34,0.27-3.16,0.8c-0.83,0.53-1.46,1.28-1.89,2.25v21.62h-8.61v-32h8.01
		l0.38,4.73c0.75-1.68,1.72-2.98,2.91-3.92c1.19-0.94,2.57-1.4,4.12-1.4c0.43,0,0.83,0.03,1.2,0.1c0.36,0.07,0.73,0.15,1.11,0.25
		L195.94,24.79z"/>
</g>
</svg>
