<?xml version="1.0" encoding="utf-8"?>
<!-- Generator: Adobe Illustrator 23.0.1, SVG Export Plug-In . SVG Version: 6.00 Build 0)  -->
<svg version="1.1" id="Layer_1" xmlns="http://www.w3.org/2000/svg" xmlns:xlink="http://www.w3.org/1999/xlink" x="0px" y="0px"
	 viewBox="0 0 196 58.8" style="enable-background:new 0 0 196 58.8;" xml:space="preserve">
<style type="text/css">
	.st0{fill:none;stroke:#000000;stroke-width:0.3;}
</style>
<text transform="matrix(1 0 0 1 -876.5928 -485.4687)" style="fill:none;stroke:#000000;stroke-width:2; font-family:'Montserrat-Regular'; font-size:150px;">Dienst</text>
<g>
	<path class="st0" d="M-1.24,56.16V5.53h17.39c6.19,0,11.29,1.98,15.3,5.93c4.01,3.95,6.02,9.02,6.02,15.22v8.38
		c0,6.21-2.01,11.29-6.02,15.22c-4.01,3.93-9.11,5.89-15.3,5.89H-1.24z M8.92,13.35v34.99h6.71c3.64,0,6.49-1.23,8.56-3.68
		c2.06-2.46,3.1-5.66,3.1-9.63v-8.44c0-3.91-1.03-7.1-3.1-9.55c-2.06-2.46-4.92-3.68-8.56-3.68H8.92z"/>
	<path class="st0" d="M55.28,9.53H45.12V1.91h10.16V9.53z M55.28,56.16H45.12V18.53h10.16V56.16z"/>
	<path class="st0" d="M80.28,56.89c-5.43,0-9.76-1.74-13.01-5.22c-3.25-3.48-4.87-7.9-4.87-13.25v-1.39
		c0-5.59,1.54-10.19,4.61-13.81c3.07-3.62,7.19-5.41,12.36-5.39c5.08,0,9.02,1.53,11.82,4.59c2.81,3.06,4.21,7.2,4.21,12.42v5.53
		H72.94l-0.07,0.21c0.19,2.47,1.01,4.5,2.49,6.1c1.47,1.59,3.47,2.39,6,2.39c2.25,0,4.12-0.23,5.6-0.68
		c1.48-0.45,3.11-1.17,4.87-2.14l2.75,6.28c-1.53,1.26-3.54,2.3-6.02,3.13C86.08,56.48,83.32,56.89,80.28,56.89z M79.38,25.66
		c-1.88,0-3.36,0.72-4.45,2.16c-1.09,1.44-1.76,3.33-2.02,5.67l0.1,0.17h12.45v-0.9c0-2.16-0.5-3.88-1.51-5.17
		C82.94,26.31,81.42,25.66,79.38,25.66z"/>
	<path class="st0" d="M110.61,18.53l0.45,5.39c1.25-1.92,2.79-3.42,4.63-4.49c1.83-1.07,3.88-1.6,6.16-1.6c3.8,0,6.77,1.19,8.9,3.58
		c2.13,2.39,3.2,6.13,3.2,11.23v23.51h-10.19V32.63c0-2.53-0.51-4.33-1.53-5.39c-1.02-1.06-2.56-1.59-4.63-1.59
		c-1.35,0-2.55,0.27-3.62,0.82c-1.07,0.55-1.96,1.32-2.68,2.32v27.36h-10.16V18.53H110.61z"/>
	<path class="st0" d="M161.87,45.8c0-1.11-0.54-2.08-1.62-2.89c-1.08-0.81-3.08-1.53-6-2.16c-4.45-0.9-7.81-2.24-10.07-4.02
		c-2.26-1.77-3.39-4.19-3.39-7.25c0-3.25,1.36-6,4.09-8.26c2.72-2.26,6.37-3.39,10.94-3.39c4.8,0,8.62,1.12,11.46,3.37
		c2.84,2.25,4.2,5.09,4.09,8.52l-0.07,0.21h-9.81c0-1.51-0.48-2.74-1.44-3.69c-0.96-0.95-2.37-1.43-4.23-1.43
		c-1.65,0-2.94,0.4-3.88,1.2c-0.94,0.8-1.41,1.8-1.41,3.01c0,1.16,0.49,2.11,1.48,2.85c0.99,0.74,2.98,1.4,6,1.98
		c4.64,0.93,8.08,2.29,10.33,4.09c2.25,1.8,3.37,4.27,3.37,7.42c0,3.39-1.45,6.15-4.35,8.3c-2.9,2.14-6.72,3.22-11.48,3.22
		c-5.01,0-8.97-1.27-11.88-3.81c-2.91-2.54-4.3-5.43-4.16-8.68l0.07-0.21h9.29c0.07,2.02,0.73,3.48,1.98,4.38
		c1.25,0.9,2.89,1.36,4.9,1.36c1.88,0,3.31-0.37,4.3-1.11C161.38,48.08,161.87,47.07,161.87,45.8z"/>
	<path class="st0" d="M190.32,9.32v9.22h6.33v7.13h-6.33v19.16c0,1.46,0.3,2.5,0.9,3.13c0.6,0.63,1.41,0.94,2.43,0.94
		c0.53,0,0.99-0.03,1.37-0.09c0.38-0.06,0.83-0.16,1.34-0.3l0.87,7.34c-1.02,0.35-2.02,0.61-2.99,0.78
		c-0.97,0.17-2.03,0.26-3.17,0.26c-3.5,0-6.2-0.96-8.09-2.89c-1.89-1.92-2.83-4.97-2.83-9.15v-19.2h-5.49v-7.13h5.49V9.32H190.32z"
		/>
</g>
</svg>
