<?xml version="1.0" encoding="utf-8"?>
<!-- Generator: Adobe Illustrator 23.0.1, SVG Export Plug-In . SVG Version: 6.00 Build 0)  -->
<svg version="1.1" id="Layer_1" xmlns="http://www.w3.org/2000/svg" xmlns:xlink="http://www.w3.org/1999/xlink" x="0px" y="0px"
	 viewBox="0 0 196 55" style="enable-background:new 0 0 196 55;" xml:space="preserve">
<style type="text/css">
	.st0{fill:none;stroke:#000000;stroke-width:0.3;}
</style>
<g>
	<path class="st0" d="M17.44,6.48c13.53,0,23.33,9.47,23.33,22.56c0,13.02-9.86,22.56-23.52,22.56h-18.3V6.48H17.44z M6.55,44.76
		h11.08c8.76,0,15.47-6.51,15.47-15.66c0-9.22-6.9-15.79-15.79-15.79H6.55V44.76z"/>
	<path class="st0" d="M56.43,7.51c0,2.58-1.87,4.45-4.32,4.45s-4.32-1.87-4.32-4.45C47.8,4.87,49.67,3,52.11,3
		S56.43,4.87,56.43,7.51z M48.44,51.59V17.31h7.35v34.28H48.44z"/>
	<path class="st0" d="M96.9,37.28H71c1.16,5.28,5.22,8.57,10.63,8.57c3.74,0,7.15-1.42,9.67-4l3.93,4.19
		c-3.35,3.67-8.25,5.8-14.18,5.8c-10.57,0-17.53-7.02-17.53-17.34c0-10.38,7.15-17.4,17.34-17.46
		C92.91,17.05,97.81,24.91,96.9,37.28z M90.46,31.87c-0.26-5.54-3.93-8.89-9.54-8.89c-5.41,0-9.22,3.42-10.05,8.89H90.46z"/>
	<path class="st0" d="M137.44,30.26v21.33h-7.41V32.32c0-5.16-3.09-8.31-8.25-8.31c-5.67,0.06-9.22,4-9.73,9.34v18.24h-7.41V17.31
		h7.41v6.57c2.45-4.77,6.83-6.83,12.63-6.83C132.67,17.05,137.44,22.08,137.44,30.26z"/>
	<path class="st0" d="M169.6,20.46l-2.71,5.48c-3.03-1.87-6.83-3.03-9.86-3.03c-2.9,0-5.03,0.97-5.03,3.42
		c0,6.32,18.24,2.9,18.17,15.34c0,7.02-6.25,10.18-13.15,10.18c-5.03,0-10.38-1.68-13.79-4.77l2.64-5.28
		c2.96,2.64,7.73,4.25,11.47,4.25c3.16,0,5.61-1.1,5.61-3.67c0-7.02-18.04-3.09-17.98-15.47c0-6.96,6.06-9.92,12.63-9.92
		C161.93,16.98,166.51,18.27,169.6,20.46z"/>
	<path class="st0" d="M197.05,49.4c-2.71,1.61-5.54,2.51-8.44,2.51c-5.16,0-9.6-2.96-9.6-9.99V24.14h-4.83V18.6h4.83V9.19h7.35v9.41
		h10.12v5.54h-10.12v16.43c0,3.54,1.35,4.64,3.67,4.64c1.55,0,3.16-0.52,5.16-1.48L197.05,49.4z"/>
</g>
<text transform="matrix(1 0 0 1 -876.5928 -487.3706)" style="fill:none;stroke:#000000;stroke-width:2; font-family:'Montserrat-Regular'; font-size:150px;">Dienst</text>
</svg>
