<?xml version="1.0" encoding="utf-8"?>
<!-- Generator: Adobe Illustrator 23.0.1, SVG Export Plug-In . SVG Version: 6.00 Build 0)  -->
<svg version="1.1" id="Layer_1" xmlns="http://www.w3.org/2000/svg" xmlns:xlink="http://www.w3.org/1999/xlink" x="0px" y="0px"
	 viewBox="0 0 60 479.89" style="enable-background:new 0 0 60 479.89;" xml:space="preserve">
<style type="text/css">
	.st0{fill:none;stroke:#000000;stroke-width:0.3;}
</style>
<text transform="matrix(1 0 0 1 -876.5928 -485.4688)" style="fill:none;stroke:#000000;stroke-width:2; font-family:'Montserrat-Regular'; font-size:150px;">Dienst</text>
<path class="st0" d="M2.88,75.54V4.45h24.41c8.69,0,15.85,2.78,21.48,8.33c5.63,5.55,8.45,12.67,8.45,21.36v11.77
	c0,8.72-2.82,15.84-8.45,21.36c-5.63,5.52-12.79,8.28-21.48,8.28H2.88z M17.13,15.44v49.12h9.42c5.11,0,9.11-1.72,12.01-5.17
	c2.9-3.45,4.35-7.95,4.35-13.51V34.02c0-5.5-1.45-9.97-4.35-13.41c-2.9-3.45-6.9-5.17-12.01-5.17H17.13z"/>
<path class="st0" d="M36.1,103.07H21.85V92.37H36.1V103.07z M36.1,168.54H21.85v-52.83H36.1V168.54z"/>
<path class="st0" d="M31.39,241.57c-7.62,0-13.71-2.44-18.26-7.32c-4.56-4.88-6.84-11.08-6.84-18.6v-1.95
	c0-7.84,2.16-14.31,6.47-19.38c4.31-5.08,10.1-7.6,17.36-7.57c7.13,0,12.66,2.15,16.6,6.45c3.94,4.3,5.91,10.11,5.91,17.43v7.76
	H21.09l-0.1,0.29c0.26,3.47,1.42,6.32,3.49,8.56c2.07,2.24,4.87,3.36,8.42,3.36c3.16,0,5.78-0.32,7.86-0.95
	c2.08-0.63,4.36-1.64,6.84-3l3.86,8.81c-2.15,1.77-4.96,3.23-8.45,4.39C39.53,240.99,35.66,241.57,31.39,241.57z M30.12,197.72
	c-2.64,0-4.72,1.01-6.25,3.03c-1.53,2.02-2.47,4.67-2.83,7.96l0.15,0.24h17.48v-1.27c0-3.03-0.71-5.44-2.12-7.25
	S32.99,197.72,30.12,197.72z"/>
<path class="st0" d="M19.28,259.71l0.63,7.57c1.76-2.7,3.92-4.8,6.49-6.3c2.57-1.5,5.45-2.25,8.64-2.25c5.34,0,9.5,1.68,12.5,5.03
	c2.99,3.35,4.49,8.61,4.49,15.77v33.01H37.74v-33.03c0-3.56-0.72-6.08-2.15-7.56c-1.43-1.48-3.6-2.23-6.49-2.23
	c-1.89,0-3.58,0.38-5.08,1.15c-1.5,0.77-2.75,1.85-3.76,3.25v38.42H6v-52.83H19.28z"/>
<path class="st0" d="M37.25,368.99c0-1.56-0.76-2.91-2.27-4.05c-1.51-1.14-4.32-2.15-8.42-3.03c-6.25-1.27-10.96-3.15-14.14-5.64
	s-4.76-5.88-4.76-10.18c0-4.56,1.91-8.42,5.74-11.6c3.82-3.17,8.94-4.76,15.36-4.76c6.74,0,12.1,1.58,16.09,4.74
	c3.99,3.16,5.9,7.15,5.74,11.96l-0.1,0.29H36.71c0-2.12-0.68-3.84-2.03-5.18c-1.35-1.33-3.33-2-5.93-2c-2.31,0-4.13,0.56-5.44,1.68
	s-1.98,2.53-1.98,4.22c0,1.63,0.69,2.96,2.08,4c1.38,1.04,4.19,1.97,8.42,2.78c6.51,1.3,11.34,3.21,14.5,5.74
	c3.16,2.52,4.74,6,4.74,10.42c0,4.75-2.04,8.63-6.1,11.65c-4.07,3.01-9.44,4.52-16.11,4.52c-7.03,0-12.59-1.78-16.67-5.35
	c-4.09-3.56-6.03-7.62-5.83-12.18l0.1-0.29h13.04c0.1,2.83,1.03,4.88,2.78,6.15s4.05,1.9,6.88,1.9c2.64,0,4.65-0.52,6.03-1.56
	C36.56,372.2,37.25,370.79,37.25,368.99z"/>
<path class="st0" d="M33.96,397.77v12.94h8.89v10.01h-8.89v26.9c0,2.05,0.42,3.52,1.27,4.39c0.85,0.88,1.99,1.32,3.42,1.32
	c0.75,0,1.39-0.04,1.93-0.12c0.54-0.08,1.16-0.22,1.88-0.42l1.22,10.3c-1.43,0.49-2.83,0.85-4.2,1.1s-2.85,0.37-4.44,0.37
	c-4.92,0-8.7-1.35-11.35-4.05c-2.65-2.7-3.98-6.98-3.98-12.84v-26.95h-7.71v-10.01h7.71v-12.94H33.96z"/>
</svg>
