<?xml version="1.0" encoding="utf-8"?>
<!-- Generator: Adobe Illustrator 23.0.1, SVG Export Plug-In . SVG Version: 6.00 Build 0)  -->
<svg version="1.1" id="Layer_1" xmlns="http://www.w3.org/2000/svg" xmlns:xlink="http://www.w3.org/1999/xlink" x="0px" y="0px"
	 viewBox="0 0 1125 150" style="enable-background:new 0 0 1125 150;" xml:space="preserve">
<style type="text/css">
	.st0{fill:#444444;}
	.st1{fill-rule:evenodd;clip-rule:evenodd;fill:#444444;}
</style>
<g id="XMLID_19_">
	<path class="st0" d="M353.11,42.65c-12.04-6.6-30.12-13.71-41.38-13.71c-2.95,0-5.33,0.48-7.07,1.44c-4.21,2.31-7.72,8.53-10.17,18
		c-2.04,7.87-3.21,17.56-3.21,26.57c0,17.93,4.19,39.53,13.38,44.57c1.88,1.03,4.4,1.55,7.48,1.55c11.63,0,29.34-7.45,40.97-13.83
		c12.81-7.03,31.88-21.42,31.89-32.29C384.99,64.72,366.34,49.9,353.11,42.65z M351.6,104.71c-18.46,10.12-38.07,15.95-45.27,12
		c-7.95-4.36-11.92-25.18-11.92-41.76c0-16.46,4.22-37.55,11.92-41.77c1.39-0.76,3.38-1.12,5.8-1.12c9.32,0,25.18,5.29,39.47,13.13
		c15.62,8.56,30.28,22,30.29,29.77C381.87,83.08,367.46,96.01,351.6,104.71z"/>
	<g id="XMLID_17_">
		<path id="XMLID_13_" class="st0" d="M361.45,83.01c-0.04,0-0.08-0.04-0.08-0.08v-7.71c0-1.72-0.58-2.45-1.96-2.45
			c-0.49,0-1.08,0.18-1.67,0.51c-0.58,0.34-1.04,0.62-1.21,0.71c-0.04,0.03-0.09,0.11-0.09,0.17v8.76c0,0.04-0.04,0.08-0.08,0.08
			h-3.46c-0.04,0-0.08-0.04-0.08-0.08v-12.4c0-0.2,0.17-0.36,0.37-0.36h3.17c0.04,0,0.08,0.03,0.08,0.08v0.97
			c0,0.06,0.05,0.11,0.11,0.11c0.02,0,0.05-0.01,0.06-0.02l0.1-0.08c0.38-0.29,0.98-0.63,1.38-0.78c0.87-0.33,1.8-0.52,2.56-0.52
			c2.83,0,4.32,1.61,4.32,4.67v8.34c0,0.04-0.03,0.08-0.08,0.08C364.89,83.01,361.45,83.01,361.45,83.01z"/>
		<path id="XMLID_12_" class="st0" d="M367.83,83.01c-0.05,0-0.08-0.04-0.08-0.08v-19c0-0.07,0.01-0.09,0.11-0.09
			c0.22,0,2.14,1.21,2.77,1.89c0.46,0.51,0.73,1.2,0.73,1.89v15.31c0,0.04-0.03,0.08-0.08,0.08H367.83z"/>
		<path class="st0" d="M329.55,76.59c0,4.54-3.01,6.71-6.74,6.71c-3.74,0-6.75-2.17-6.75-6.71c0-4.65,3.01-6.71,6.75-6.71
			C326.54,69.87,329.55,71.94,329.55,76.59 M325.73,76.58c0-2.45-1.25-3.53-2.92-3.53s-2.92,1.07-2.92,3.53
			c0,2.25,1.25,3.52,2.92,3.52C324.47,80.1,325.73,78.84,325.73,76.58"/>
		<path id="XMLID_9_" class="st0" d="M347.12,66.63c0-0.1-0.04-0.14-0.15-0.14c-0.25,0-2.2,1.24-2.8,1.9
			c-0.45,0.5-0.74,1.19-0.74,1.92v8.25c0,3.58,2.08,4.7,4.32,4.7c1.28,0,2.15-0.19,2.66-0.46c0.11-0.06,0.21-0.18,0.21-0.36V80.1
			c0-0.07-0.06-0.12-0.13-0.12c-0.12,0-0.97,0.33-1.52,0.33c-1.16,0-1.85-0.54-1.85-2.36v-4.74c0-0.07,0.05-0.12,0.12-0.12h3.12
			c0.07,0,0.13-0.06,0.13-0.13l0,0v-2.45c0-0.22-0.18-0.4-0.41-0.4h-2.84c-0.07,0-0.12-0.05-0.12-0.12L347.12,66.63z"/>
		<path class="st0" d="M301.98,70.52c0-0.23,0.19-0.41,0.42-0.41h4.92c4.83,0,7.34,2.89,7.34,6.62c0,3.74-2.8,6.33-7.42,6.33h-1.44
			c-0.07,0-0.13,0.06-0.13,0.12v6.05c0,0.1-0.04,0.13-0.15,0.13c-0.25,0-2.2-1.24-2.8-1.9c-0.45-0.5-0.74-1.19-0.74-1.92
			L301.98,70.52L301.98,70.52z M311.01,76.55c0-1.59-1.03-3.08-3.76-3.08h-1.45c-0.07,0-0.13,0.06-0.13,0.13v5.97
			c0,0.07,0.06,0.13,0.13,0.13h1.52C310.57,79.7,311.01,77.45,311.01,76.55"/>
		<path id="XMLID_6_" class="st0" d="M339.96,76.02c-0.77-0.5-1.7-0.7-2.6-0.9c-0.16-0.03-0.76-0.17-0.89-0.2
			c-1.1-0.24-1.97-0.44-1.97-1.15c0-0.61,0.59-1.01,1.51-1.01c1.16,0,2.77,0.23,4.53,0.89c0.09,0.03,0.21-0.02,0.21-0.14v-2.53
			c0-0.18-0.11-0.35-0.31-0.41c-0.61-0.19-2.45-0.7-3.99-0.7c-1.72,0-3.15,0.38-4.15,1.11c-1,0.72-1.53,1.77-1.53,3.04
			c0,2.85,2.35,3.39,4.57,3.91c0.34,0.08,0.29,0.07,0.42,0.09c1.01,0.22,2.06,0.45,2.06,1.28c0,0.25-0.09,0.45-0.28,0.64
			c-0.28,0.28-0.72,0.4-1.56,0.4c-1.41,0-4.07-0.66-4.89-0.92c0,0-0.04-0.01-0.05-0.01c-0.09,0-0.16,0.07-0.16,0.15v2.54
			c0,0.18,0.11,0.33,0.29,0.39c0.02,0.01,2.34,0.77,4.54,0.77c3.84,0,5.81-1.49,5.81-4.22C341.52,77.71,341.01,76.71,339.96,76.02"
			/>
		<path class="st0" d="M317.11,66.8c-0.31,0-0.44-0.15-0.44-0.51V64.9c0-0.32,0.27-0.58,0.59-0.58h11.12c0.32,0,0.58,0.27,0.58,0.58
			v1.39c0,0.36-0.13,0.51-0.44,0.51H317.11z M327.16,62.9c-0.12,0-0.2-0.03-0.24-0.09c-0.05-0.07-0.05-0.17-0.01-0.3
			c0.37-1.14,1.61-4.6,1.63-4.64c0.08-0.22,0-0.54-0.24-0.62l-0.63-0.21c-0.05-0.01-0.09-0.02-0.12-0.02
			c-0.12,0-0.19,0.06-0.22,0.12c-0.26,0.57-0.41,0.97-0.6,1.65c-0.04,0.12-0.13,0.17-0.29,0.17h-1.23c-0.09,0-0.16-0.03-0.19-0.07
			c-0.04-0.05-0.04-0.12-0.02-0.21c0.32-1.13,0.64-2.03,1.09-3.02c0.08-0.17,0.27-0.46,0.69-0.46c0.08,0,0.16,0.01,0.24,0.03h0.01
			c0.42,0.1,0.89,0.21,1.38,0.36c0.39,0.12,0.79,0.26,1.21,0.41c1.25,0.46,1.2,1.37,0.96,2.27c-0.15,0.55-0.88,2.59-1.32,3.8
			c-0.09,0.26-0.17,0.47-0.22,0.62c-0.05,0.14-0.17,0.21-0.36,0.21H327.16z M322.03,62.9c-0.28,0-0.3-0.3-0.3-0.31
			c0-0.06-0.08-6.53-0.1-7.41c0-0.07,0.02-0.21,0.11-0.3c0.05-0.05,0.12-0.08,0.19-0.08c0.13-0.01,0.47-0.02,0.87-0.02
			s0.74,0.01,0.87,0.02c0.08,0,0.14,0.03,0.19,0.08c0.09,0.09,0.11,0.24,0.11,0.3c-0.01,0.88-0.09,7.35-0.09,7.41
			c0,0-0.02,0.31-0.29,0.31H322.03z M316.94,62.9c-0.19,0-0.31-0.07-0.36-0.21c-0.05-0.15-0.13-0.37-0.22-0.62
			c-0.44-1.22-1.17-3.25-1.32-3.8c-0.24-0.91-0.29-1.81,0.96-2.27c0.42-0.15,0.82-0.29,1.21-0.41c0.5-0.15,0.97-0.26,1.39-0.36h0.01
			c0.08-0.02,0.16-0.03,0.24-0.03c0.42,0,0.61,0.29,0.69,0.46c0.45,0.99,0.77,1.9,1.09,3.02c0.02,0.09,0.02,0.16-0.02,0.21
			c-0.04,0.05-0.1,0.07-0.19,0.07h-1.23c-0.16,0-0.25-0.06-0.29-0.17c-0.2-0.68-0.35-1.08-0.61-1.65c-0.03-0.06-0.1-0.12-0.22-0.12
			c-0.04,0-0.08,0.01-0.12,0.02l-0.63,0.21c-0.24,0.09-0.32,0.4-0.24,0.62c0.01,0.04,1.26,3.5,1.63,4.64
			c0.04,0.13,0.04,0.24-0.01,0.3c-0.04,0.06-0.12,0.09-0.24,0.09H316.94z M322.81,53.47c-0.07,0-0.14-0.03-0.21-0.09
			c-0.52-0.41-1-0.88-1.41-1.42c-0.05-0.06-0.14-0.18-0.01-0.33c0.43-0.56,0.94-1.06,1.5-1.47c0.06-0.04,0.1-0.05,0.13-0.05
			s0.07,0.01,0.14,0.05c0.56,0.42,1.06,0.91,1.49,1.47c0.12,0.13,0.06,0.24-0.01,0.33c-0.42,0.53-0.89,1.01-1.41,1.42
			C322.95,53.44,322.88,53.47,322.81,53.47L322.81,53.47z"/>
	</g>
</g>
<g>
	<path class="st0" d="M750.73,64.58c-2.23-1.11-4.57-1.56-7.13-1.56c-2.45,0-4.68,0.45-6.8,1.34s-3.9,2.01-5.57,3.57
		c-1.56,1.56-2.79,3.34-3.68,5.35s-1.34,4.12-1.34,6.24c0,2.9,0.67,5.35,2.01,7.58s3.23,3.9,5.57,5.13
		c2.34,1.23,4.79,1.78,7.58,1.78c2.34,0,4.46-0.45,6.46-1.23c2.01-0.78,3.79-2.01,5.35-3.45c1.56-1.45,2.67-3.23,3.57-5.35
		c0.89-2.12,1.34-4.24,1.34-6.69c0-3.12-0.67-5.79-2.01-7.91C754.74,67.26,752.95,65.69,750.73,64.58z M747.38,81.07
		c-0.56,1.34-1.34,2.34-2.34,3.23c-1,0.78-2.12,1.23-3.45,1.23c-1.56,0-2.9-0.56-3.79-1.67c-1-1.11-1.45-2.45-1.45-4.12
		c0-1.11,0.22-2.34,0.67-3.68c0.45-1.34,1.23-2.45,2.23-3.34s2.23-1.34,3.79-1.34s2.79,0.56,3.68,1.56c1,1,1.45,2.45,1.45,4.23
		C748.16,78.51,747.94,79.85,747.38,81.07z"/>
	<path class="st0" d="M877.42,63.69c-0.78-0.11-1.45-0.22-2.23-0.33c-0.78-0.11-1.56-0.11-2.23-0.22c-0.78-0.11-1.45-0.11-2.01-0.11
		c-3.01,0-4.57,0.22-7.13,0.67c-2.56,0.45-4.79,1-6.69,1.45l-4.46,28.19h10.14l3.57-22.73c0.44-0.11,2.45-0.45,3.12-0.45
		c1.45,0,2.67,0.11,3.9,0.33c1.23,0.22,2.23,0.45,3.12,0.56l2.79-6.91C878.76,63.91,878.2,63.8,877.42,63.69z"/>
	<polygon class="st0" points="818.48,56 801.87,93.33 811.12,93.33 828.62,56 	"/>
	<polygon class="st0" points="728.1,63.47 727.55,63.47 701.14,63.47 700.13,70.38 712.73,70.38 696.68,93.33 697.02,93.33 
		723.76,93.33 724.76,86.2 712.28,86.2 	"/>
	<polygon class="st0" points="803.99,67.26 793.85,67.26 800.31,93.33 806.11,79.96 	"/>
	<path class="st0" d="M845.22,64.47c-1.89-1-4.01-1.45-6.35-1.45c-3.12,0-5.91,0.78-8.36,2.34c-2.45,1.56-4.46,3.57-5.79,6.24
		c-1.45,2.56-2.12,5.46-2.12,8.47c0,2.01,0.45,4.12,1.23,6.24c0.89,2.12,2.45,3.9,4.79,5.35c2.34,1.56,5.57,2.23,9.58,2.23
		c1.89,0,3.46-0.11,4.79-0.44c1.23-0.33,2.9-0.89,5.01-1.67l1.45-7.35c-2.23,0.89-4.12,1.56-5.68,2.01
		c-1.56,0.44-3.34,0.67-5.46,0.67c-4.01,0-6.13-2.12-6.13-6.24h18.94c0.22-1.56,0.45-3.01,0.45-4.35c0-3.01-0.56-5.46-1.78-7.58
		C848.79,67.03,847.23,65.47,845.22,64.47z M842.21,75.28c0,0.11,0,0.22,0,0.45h-9.14c0.67-1.78,1.45-3.23,2.23-4.35
		c0.78-1.11,1.89-1.67,3.34-1.67c2.34,0,3.45,1.67,3.45,5.01C842.21,75.06,842.21,75.17,842.21,75.28z"/>
	<path class="st0" d="M785.38,64.58c-2.23-1.11-4.57-1.56-7.13-1.56c-2.45,0-4.68,0.45-6.8,1.34s-3.9,2.01-5.57,3.57
		c-1.56,1.56-2.79,3.34-3.68,5.35s-1.34,4.12-1.34,6.24c0,2.9,0.67,5.35,2.01,7.58s3.23,3.9,5.57,5.13
		c2.34,1.23,4.79,1.78,7.58,1.78c2.34,0,4.46-0.45,6.46-1.23c2.01-0.78,3.79-2.01,5.35-3.45c1.56-1.45,2.67-3.23,3.57-5.35
		c0.89-2.12,1.34-4.24,1.34-6.69c0-3.12-0.67-5.79-2.01-7.91C789.39,67.26,787.61,65.69,785.38,64.58z M782.04,81.07
		c-0.56,1.34-1.34,2.34-2.34,3.23c-1,0.78-2.12,1.23-3.46,1.23c-1.56,0-2.9-0.56-3.79-1.67c-1-1.11-1.45-2.45-1.45-4.12
		c0-1.11,0.22-2.34,0.67-3.68c0.45-1.34,1.23-2.45,2.23-3.34s2.23-1.34,3.9-1.34c1.56,0,2.79,0.56,3.68,1.56
		c1,1,1.45,2.45,1.45,4.23C782.82,78.51,782.59,79.85,782.04,81.07z"/>
</g>
<g>
	<path class="st1" d="M181.22,98.07c-0.38,0.31-0.9,0.6-1.46,0.87c-0.93,0.47-1.95,0.94-2.87,0.94c-0.63,0-1.09-0.17-1.44-0.46
		c-0.16-0.14-0.29-0.28-0.38-0.41c-0.08-0.1-0.15-0.21-0.22-0.3c-0.24-0.31-0.48-0.76-0.72-1.32c-1.47,1.45-4.09,2.67-7.89,2.67
		c-3.22,0-5.77-0.82-7.59-2.55c-1.78-1.68-2.79-4.1-2.79-7.44V70.99c0-0.81,0.16-1.36,0.74-1.79c0.6-0.46,1.74-0.61,3.19-0.61
		c1.42,0,2.57,0.16,3.16,0.62c0.57,0.43,0.73,0.98,0.73,1.78v18.2c0,2.71,1.11,4.05,4.31,4.05s5.1-1.91,5.1-4.53V70.99
		c0-0.81,0.16-1.36,0.74-1.79c0.59-0.46,1.69-0.61,3.15-0.61c1.42,0,2.57,0.16,3.16,0.62c0.57,0.43,0.73,0.98,0.73,1.78v21.18
		c0,0.7,0.11,1.32,0.24,1.83c0.13,0.49,0.28,0.86,0.36,1.07c0.26,0.52,0.49,1.03,0.49,1.71C181.97,97.35,181.58,97.78,181.22,98.07
		L181.22,98.07L181.22,98.07z"/>
	<path class="st1" d="M146.32,76v21.15c0,0.81-0.16,1.36-0.74,1.79c-0.6,0.46-1.74,0.61-3.15,0.61c-1.46,0-2.61-0.16-3.2-0.62
		c-0.57-0.43-0.73-0.98-0.73-1.78V76.56l-3.61,0.26c-3.23,0.23-3.36-2.51-3.36-4.03c0-3.01,1.11-4.09,3.11-4.09h15.56
		c1.52,0,2.68,0.49,3.13,2.67c0.5,2.42,0.3,4.11-2.42,4.3L146.32,76L146.32,76L146.32,76z"/>
	<path class="st1" d="M195.26,99c-0.6,0.46-1.74,0.61-3.15,0.61c-1.46,0-2.61-0.16-3.2-0.62c-0.57-0.43-0.73-0.98-0.73-1.78V70.99
		c0-0.81,0.16-1.36,0.74-1.79c0.6-0.46,1.74-0.61,3.19-0.61c1.42,0,2.57,0.16,3.16,0.62c0.57,0.43,0.73,0.98,0.73,1.78v26.22
		C196,98.02,195.84,98.57,195.26,99L195.26,99L195.26,99z"/>
	<path class="st1" d="M32.89,54.32h20.7c2.03,0,3.56,0.64,4.16,3.52c0.67,3.2,0.39,5.43-3.21,5.68l-6.5,0.46
		c4.78,30.19,32.75,40.02,47.97,7.51c2.52-5.38,3.34-6.36,6.1-5.68c3.74,0.93,4.25,2.85,2.47,8.27
		c-13.16,40.08-57.41,44.1-66.09-9.43l-5.28,0.38c-4.3,0.31-4.47-3.31-4.47-5.32C28.76,55.75,30.24,54.32,32.89,54.32L32.89,54.32
		L32.89,54.32z"/>
	<path class="st1" d="M108.16,34.94c4.24,0,7.67,3.44,7.67,7.67c0,4.24-3.44,7.67-7.67,7.67c-4.24,0-7.67-3.44-7.67-7.67
		C100.48,38.37,103.92,34.94,108.16,34.94L108.16,34.94L108.16,34.94z"/>
</g>
<g>
	<path class="st1" d="M561.16,81.02c-0.01-4.35-6.43-3.87-6.4-6.85c-0.04-1.02,0.68-1.79,1.53-1.8c2.14,0.02,2.77,2.33,2.88,3.24
		h1.08c0.03-1.15,0-2.4-0.27-3.51c-0.7-0.37-1.92-0.8-3.42-0.81c-5.09,0.01-5.09,3.52-5.14,3.78c0.05,4.53,6.46,3.7,6.49,7.12
		c-0.02,1.01-0.71,1.86-1.89,1.89c-2.15-0.03-3.44-2.31-3.6-3.88h-1.17c0.03,1.71,0.25,2.91,0.54,4.06c1.03,0.5,2.25,0.87,3.96,0.9
		C559.58,85.14,561.15,83.23,561.16,81.02L561.16,81.02z M549.45,77.95c-0.03-4.6-3.4-6.65-7.12-6.66c-3.61,0.01-7.26,2.18-7.3,7.12
		c0.04,4.76,3.43,6.73,7.12,6.76C545.77,85.14,549.42,83.03,549.45,77.95L549.45,77.95z M534.59,83.9l-0.09-0.72h-0.63
		c-1.25-0.01-1.25-0.67-1.26-2.97V64.17c-1.53,0-2.81,0.17-5.14,0.63v0.72c0.07,0.04,0.41-0.01,0.72,0c1.01-0.01,1.01,1.1,0.99,3.61
		v2.34c-0.53-0.08-1.04-0.17-1.89-0.18c-2.34,0.01-8.16,0.95-8.2,7.48c0.03,4.35,3.17,6.37,6.31,6.4c1.86-0.03,3.23-0.94,3.96-1.35
		l0.72,1.35C531.59,84.85,533.16,84.51,534.59,83.9L534.59,83.9z M516.75,77.95c0.04-4.6-3.33-6.65-7.03-6.66
		c-3.64,0.01-7.29,2.18-7.3,7.12c0.01,4.76,3.4,6.73,7.03,6.76C513.13,85.14,516.78,83.03,516.75,77.95L516.75,77.95z M499,66.87
		c0.04-1.05-0.87-1.94-1.98-1.89c-1.12-0.04-1.97,0.84-1.98,1.89c0.01,1.2,0.86,2.06,1.98,2.07C498.12,68.93,499.04,68.11,499,66.87
		L499,66.87z M500.71,84.71v-0.72l-0.63-0.09c-0.98-0.08-1.13-0.39-1.17-1.89V71.29c-1.44,0.1-3.01,0.32-5.13,1.08v0.81
		c0.1-0.06,0.47-0.2,0.9-0.18c0.85-0.02,0.85,1.27,0.81,2.25v6.76c0.04,1.5-0.1,1.81-1.17,1.89l-0.54,0.09v0.72H500.71L500.71,84.71
		z M492.42,72.55c-0.43-0.42-1.15-1.25-2.34-1.26c-1.46,0.01-2.65,1.38-3.24,1.98c0.02-0.86-0.12-1.45-0.18-1.98
		c-2.08,0.32-2.68,0.53-4.86,1.26v0.72c0.21-0.06,0.53-0.17,0.99-0.18c0.82,0.01,0.82,1.29,0.81,2.25v6.67
		c0.01,1.5-0.13,1.81-1.17,1.89l-0.63,0.09v0.72h7.57v-0.72l-1.17-0.18c-1.16-0.13-1.16-0.5-1.17-2.52v-6.94
		c0.38-0.45,0.72-0.57,1.17-0.54c0.38-0.03,2.03,0.66,2.52,0.81C491.59,73.95,491.99,73.47,492.42,72.55L492.42,72.55z
		 M482.33,70.75c0.01-0.42-0.24-4.24-0.36-4.87h-15.86c-0.12,0.63-0.37,4.45-0.36,4.87h0.99c0.77-3.04,1.08-3.79,4.32-3.79h1.08
		v13.6c0.04,2.92,0.04,3.09-1.8,3.33l-0.72,0.09v0.72h8.83v-0.72l-0.72-0.09c-1.84-0.25-1.84-0.42-1.8-3.33v-13.6h1.08
		c3.25,0,3.56,0.74,4.32,3.79H482.33L482.33,70.75z M545.76,78.58c0.01,2.22-0.61,5.47-3.24,5.5c-2.76-0.03-3.79-3.31-3.78-6.31
		c-0.01-2.37,0.71-5.39,3.33-5.41C544.91,72.39,545.77,75.55,545.76,78.58L545.76,78.58z M529.18,83c-0.3,0.23-0.9,0.48-1.62,0.45
		c-2.3,0.03-4.78-2.19-4.77-6.04c-0.01-2.89,1.45-5.03,3.96-5.04c1.36,0.02,1.91,0.53,2.43,0.99V83L529.18,83z M513.14,78.58
		c-0.01,2.22-0.64,5.47-3.33,5.5c-2.7-0.03-3.73-3.31-3.69-6.31c-0.03-2.37,0.68-5.39,3.24-5.41
		C512.28,72.39,513.13,75.55,513.14,78.58L513.14,78.58z M659,84.71v-0.72c-1.11-0.02-1.37-0.31-5.95-7.48
		c3.21-3.27,3.24-3.7,4.95-3.96l0.54-0.09v-0.72h-6.31v0.72l0.9,0.09c0.41,0.09,0.89,0.18,0.9,0.45c-0.01,0.38-0.29,0.78-1.26,1.98
		l-0.99,1.08c-1.04,1.17-1.64,1.23-2.7,1.26V64.17c-1.5,0-2.79,0.17-5.13,0.63v0.72c0.1,0.04,0.44-0.01,0.81,0
		c0.94-0.01,0.94,1.1,0.9,3.61v12.88c0.04,1.5-0.13,1.81-1.17,1.89l-0.54,0.09v0.72h6.94v-0.72l-0.63-0.09
		c-0.99-0.08-1.13-0.39-1.17-1.89v-3.6h0.36c1.19-0.03,1.22,0.74,2.7,2.97c1.48,2.27,1.65,3.33,4.68,3.33H659L659,84.71z
		 M642.78,84.71v-0.72l-0.54-0.09c-1.04-0.08-1.19-0.39-1.17-1.89v-5.59c-0.02-3.9-1.76-5.12-4.32-5.14
		c-2.43,0.01-3.79,1.04-4.5,1.71v-1.71c-1.49,0.1-3,0.32-5.14,1.08v0.81c0.11-0.06,0.48-0.2,0.9-0.18c0.86-0.02,0.86,1.27,0.9,2.25
		V82c-0.04,1.5-0.18,1.81-1.17,1.89l-0.54,0.09v0.72h6.85v-0.72l-0.54-0.09c-1.07-0.08-1.21-0.39-1.17-1.89v-7.93
		c0.42-0.53,1.16-1.13,2.34-1.08c2.96-0.04,2.96,2.69,2.97,4.95V82c-0.02,1.5-0.16,1.81-1.17,1.89l-0.63,0.09v0.72h6.93V84.71z
		 M626.21,84.44l-0.09-0.36c-0.07,0-0.13,0-0.18,0c-1.86,0-1.86-2.11-1.89-4.15v-3.51c0.03-3.27-0.59-5.12-4.14-5.14
		c-2.93,0.01-4.89,1.64-6.22,3.06c0.27,0.66,0.41,0.89,0.81,1.44h0.27c0.38-0.87,1.21-2.84,3.42-2.79c2.01-0.04,2.47,1.47,2.43,3.15
		v0.72c-2.33,0.59-7.35,1.56-7.39,5.14c0.03,1.84,1.54,3.13,3.78,3.15c1.98-0.03,3.15-0.91,3.96-1.44c0.44,0.68,0.96,1.42,2.79,1.44
		C625.02,85.14,625.85,84.62,626.21,84.44L626.21,84.44z M611.43,79.31c0.01-3.47-3.04-4.61-4.77-4.87v-0.09
		c1.47-0.43,3.87-1.48,3.87-4.5c0-3.97-4.74-3.97-6.13-3.97h-8.47v0.72l0.63,0.09c1.38,0.19,1.38,0.19,1.35,3.34v10.45
		c0.03,3.23,0.06,3.23-1.35,3.42l-0.63,0.09v0.72h7.39C607.59,84.71,611.44,83.51,611.43,79.31L611.43,79.31z M620.8,82.82
		c-0.26,0.15-0.8,0.67-1.8,0.63c-1.25,0.03-2.08-0.99-2.07-2.34c-0.01-2.13,1.79-2.99,3.42-2.97c0.11-0.02,0.19,0.01,0.27,0v3.15
		C620.66,81.8,620.74,82.51,620.8,82.82L620.8,82.82z M606.84,70.48c-0.02,3.11-1.96,3.71-4.14,3.7h-1.08v-7.03
		c0.53-0.12,1.01-0.18,1.53-0.18C605.31,66.96,606.82,68.31,606.84,70.48L606.84,70.48z M607.74,79.76
		c-0.01,2.24-1.15,3.87-3.78,3.87c-0.76,0-1.56-0.18-2.34-0.45v-7.93h1.26C606.33,75.27,607.73,77.49,607.74,79.76L607.74,79.76z"/>
	<path class="st1" d="M591.43,76.87c0.04-3.46-1.44-6.83-3.42-8.83c-1.24-1.25-2.39-2.02-4.05-2.8l-0.18,0.36
		c0.79,0.47,1.45,0.98,2.25,1.71c2.16,2.15,3.59,5.8,3.6,8.83c-0.01,0.42-0.01,1.02-0.09,1.53c-0.44-1.28-1.18-2.36-2.16-3.33
		c-0.27-0.31-0.67-0.71-0.99-0.9c-0.02,0.68-0.31,2.16-0.63,2.98c0.41,0.38,0.64,0.64,1.08,0.99c0.87,0.96,1.47,2.16,1.44,3.15
		c0.03,0.58-0.23,1.18-0.72,1.62c-0.42,0.47-1.36,0.81-2.34,0.81c-1.07,0-2.73-0.6-3.6-1.26c1.76-1.74,2.81-3.65,3.51-6.04
		c0.24-1.03,0.38-2.06,0.36-3.06c0.02-1.88-0.43-3.65-1.26-5.04c-1.26-2.23-3.19-3.49-5.77-3.51c-2.99,0.03-5.82,1.51-7.93,3.69
		c-2.42,2.41-3.62,5.41-3.6,8.47c-0.02,0.56,0.01,1.08,0.09,1.71h0.36c0.02-0.95,0.13-1.8,0.36-2.88c0.51-1.89,1.82-4,3.51-5.67
		c1.16-1.18,2.48-2.03,3.69-2.52c-0.88,1.03-1.48,2.2-1.89,3.51c-0.07,0.4-0.18,0.97-0.18,1.35c0.57-0.32,2-0.84,2.88-0.99
		c0.23-1.3,0.71-2.76,1.71-3.7c0.45-0.52,1.02-0.83,1.71-0.81c1.11-0.02,1.96,0.78,2.52,1.71c0.53,0.92,0.87,2.6,0.72,3.78
		c-1.19-0.38-2.33-0.55-3.51-0.54c-1.1-0.01-2.24,0.16-3.51,0.54c-1.95,0.5-3.78,1.53-5.14,2.89s-2.44,3.3-2.43,5.31
		c-0.01,2.06,1.05,3.8,2.43,5.23c2.35,2.34,5.69,3.54,9.01,3.51c2.62,0.03,4.98-0.88,7.12-2.43l-0.18-0.27
		c-1.7,0.9-3.49,1.36-5.5,1.35c-2.79,0.01-5.79-0.85-7.84-2.43c0.57,0.07,1.11,0.13,1.62,0.09c1,0.04,2.74-0.21,3.6-0.72
		c-0.52-0.35-1.66-1.35-2.25-2.07c-0.86,0.35-1.92,0.61-2.88,0.63c-0.86-0.02-1.83-0.22-2.43-0.9c-0.4-0.4-0.63-0.95-0.63-1.53
		c0-1.19,0.66-2.18,1.44-2.98c0.59-0.63,1.36-1.18,1.98-1.44c0.63,2.4,1.74,4.34,3.51,6.13c2.14,2.1,4.96,3.3,7.48,3.34
		c1.85-0.01,3.45-0.55,4.78-1.89C590.53,82.08,591.47,79.52,591.43,76.87L591.43,76.87z M582.06,74.89
		c-0.61,1.86-1.72,3.54-3.06,4.86c-1.31-1.41-2.19-3.23-2.61-5.04c0.74-0.19,1.53-0.27,2.34-0.27
		C579.86,74.44,580.97,74.61,582.06,74.89L582.06,74.89z"/>
</g>
<g>
	<path class="st1" d="M1053.34,70.4v-3.32l-6.05,0.78v18.16h6.44v-9.57c0.2-2.54,1.37-4.1,3.32-4.1c1.17-0.19,1.95,0.2,2.34,1.17
		l0.78,1.95v10.74h6.64v-9.37c-0.19-2.93,0.78-4.49,3.32-4.49c2.15-0.19,3.32,0.78,3.12,2.54v11.33h6.44V72.94
		c0.39-3.91-1.76-6.05-6.44-6.25c-3.52-0.39-5.66,0.98-7.03,3.52c-0.59-2.34-2.73-3.71-6.25-3.52
		C1056.86,66.69,1054.51,67.86,1053.34,70.4L1053.34,70.4z"/>
	<path class="st1" d="M1041.62,70.2l-0.78-1.56c-1.37-1.56-3.32-2.15-5.27-2.15c-3.12-0.2-5.86,0-8.4,1.17v4.49
		c2.73-1.76,5.47-2.15,8.4-0.98l0.59,1.76l-5.27,0.78c-1.17,0.2-2.54,0.78-3.52,1.37c-1.95,1.37-2.93,3.13-2.73,5.66
		c0.19,2.54,1.56,4.49,4.1,5.47c2.54,1.17,5.08,0.78,7.23-1.17v1.17h6.25L1041.62,70.2L1041.62,70.2z M1030.69,80.16
		c-0.2-0.78,0-1.37,0.78-2.15c0.98-0.98,2.54-1.37,4.49-1.17v4.3c-0.78,0.59-1.76,0.98-2.73,0.98
		C1031.86,81.92,1031.08,81.33,1030.69,80.16L1030.69,80.16z"/>
	<path class="st1" d="M1090.64,66.1l-6.25,0.98V95.4h6.64v-9.37h3.12c6.44,0,9.76-3.32,9.76-10.16c0-3.32-0.78-5.66-2.54-7.22
		c-1.56-1.37-3.32-2.15-5.47-2.15c-2.34,0-4.1,0.59-5.27,1.56V66.1H1090.64z M1091.03,71.96l2.54-0.2c0.59-0.2,1.37,0,2.15,0.59
		s1.37,1.76,1.56,3.51c-0.2,3.91-1.76,5.66-4.49,5.66h-1.76L1091.03,71.96L1091.03,71.96z"/>
	<polygon class="st1" points="949.25,60.83 945.74,79.38 942.61,60.83 933.82,60.83 930.51,78.8 927.38,60.83 920.15,60.83 
		925.82,86.22 934.61,86.22 938.12,66.88 942.03,86.22 950.62,86.22 956.28,60.83 	"/>
	<path class="st1" d="M956.67,75.28v2.73c-0.39,5.66,2.93,8.59,10.15,8.59c3.52,0,5.86-0.39,7.42-1.37v-4.1
		c-1.17,0.98-3.12,1.37-5.86,1.37c-3.91,0-5.86-1.37-5.47-4.3h12.11v-3.9c0.2-5.27-2.73-8.01-8.79-7.81
		C960.19,66.3,957.06,69.42,956.67,75.28L956.67,75.28z M969.17,74.5h-6.44c-0.2-2.93,0.98-4.3,3.52-4.3
		C968.39,70.2,969.37,71.57,969.17,74.5L969.17,74.5z"/>
	<path class="st1" d="M992.61,66.88c-3.32-0.39-5.47,0.39-6.44,2.54V58.88l-6.64,0.78l-0.2,26.36h6.64V75.87
		c0-2.34,0.98-3.51,2.73-3.32c1.17-0.2,1.95,0,2.15,0.59l0.59,1.95c0.39,1.17,0.39,4.88,0,10.94h7.03v-12.3
		C998.66,69.81,996.71,67.47,992.61,66.88L992.61,66.88z"/>
	<polygon class="st1" points="1009.79,74.7 1009.79,58.88 1003.15,59.66 1003.15,86.22 1009.99,86.22 1009.99,77.23 1014.67,86.22 
		1022.88,86.22 1016.04,75.87 1022.49,67.08 1015.26,67.08 	"/>
</g>
</svg>
