<?xml version="1.0" encoding="utf-8"?>
<!-- Generator: Adobe Illustrator 23.0.1, SVG Export Plug-In . SVG Version: 6.00 Build 0)  -->
<svg version="1.1" id="Layer_1" xmlns="http://www.w3.org/2000/svg" xmlns:xlink="http://www.w3.org/1999/xlink" x="0px" y="0px"
	 viewBox="0 0 742.78 90" style="enable-background:new 0 0 742.78 90;" xml:space="preserve">
<style type="text/css">
	.st0{fill:#4469D3;}
</style>
<g>
	<g>
		<path d="M17.8,46.62v31.15H5.27V2.68h27.75c8.39,0,14.87,1.89,19.45,5.67c4.57,3.78,6.86,9.18,6.86,16.2
			c0,3.89-1.01,7.23-3.02,10.03c-2.01,2.8-4.94,5.05-8.79,6.73c4.23,1.34,7.27,3.53,9.13,6.58c1.86,3.04,2.79,6.78,2.79,11.22v6.24
			c0,2.2,0.27,4.35,0.83,6.45c0.55,2.1,1.48,3.7,2.79,4.8v1.19H50.14c-1.38-1.13-2.26-2.92-2.66-5.36s-0.59-4.83-0.59-7.17v-6.03
			c0-3.85-1.1-6.91-3.3-9.18s-5.23-3.4-9.08-3.4H17.8V46.62z M17.8,36.57h14.55c5.02,0,8.68-0.96,10.99-2.89
			c2.3-1.93,3.46-4.87,3.46-8.82c0-3.78-1.13-6.75-3.4-8.9s-5.73-3.22-10.37-3.22H17.8V36.57z"/>
	</g>
	<g>
		<path d="M120.6,43.99H87.74v23.73h38.12v10.06H75.21V2.68h50.29v10.06H87.74v21.2h32.86V43.99z"/>
	</g>
	<g>
		<path d="M221.9,46.62v31.15h-12.53V2.68h27.75c8.39,0,14.87,1.89,19.45,5.67c4.57,3.78,6.86,9.18,6.86,16.2
			c0,3.89-1.01,7.23-3.02,10.03c-2.01,2.8-4.94,5.05-8.79,6.73c4.23,1.34,7.27,3.53,9.13,6.58s2.79,6.78,2.79,11.22v6.24
			c0,2.2,0.27,4.35,0.83,6.45c0.55,2.1,1.48,3.7,2.79,4.8v1.19h-12.89c-1.38-1.13-2.26-2.92-2.66-5.36
			c-0.4-2.44-0.59-4.83-0.59-7.17v-6.03c0-3.85-1.1-6.91-3.3-9.18s-5.23-3.4-9.08-3.4H221.9V46.62z M221.9,36.57h14.55
			c5.02,0,8.68-0.96,10.99-2.89c2.3-1.93,3.46-4.87,3.46-8.82c0-3.78-1.13-6.75-3.4-8.9c-2.27-2.15-5.73-3.22-10.37-3.22H221.9
			V36.57z"/>
	</g>
	<g>
		<path d="M336.35,2.68v50.34c0,8.32-2.72,14.71-8.15,19.16s-12.53,6.68-21.3,6.68c-8.6,0-15.56-2.23-20.89-6.71
			c-5.33-4.47-7.99-10.85-7.99-19.14V2.68h12.53v50.3c0,5.26,1.48,9.21,4.44,11.85c2.96,2.65,6.93,3.97,11.91,3.97
			c5.16,0,9.27-1.32,12.33-3.97c3.06-2.64,4.59-6.6,4.59-11.85V2.68H336.35z"/>
	</g>
	<g>
		<path d="M364.56,77.78h-12.53V2.68h12.53V77.78z"/>
	</g>
	<g>
		<path d="M433.01,12.74h-22.69v65.04h-12.53V12.74H375.1V2.68h57.92v10.06H433.01z"/>
	</g>
	<g>
		<path d="M459.05,2.68l21.61,57.77h0.31l21.66-57.77h16.25v75.1h-12.53V52.19l1.24-32.55l-0.31-0.05L485,77.78h-8.41l-22.18-58.03
			l-0.31,0.05l1.24,32.39v25.58h-12.53V2.68H459.05z"/>
	</g>
	<g>
		<path d="M580.73,43.99h-32.86v23.73h38.12v10.06h-50.65V2.68h50.29v10.06h-37.76v21.2h32.86L580.73,43.99L580.73,43.99z"/>
	</g>
	<g>
		<path d="M655.21,77.78h-12.48L609.4,22.95l-0.31,0.1v54.72h-12.53V2.68h12.53l33.32,54.78l0.31-0.1V2.68h12.48v75.1H655.21z"/>
	</g>
	<g>
		<path d="M722.98,12.74h-22.69v65.04h-12.53V12.74h-22.69V2.68h57.92L722.98,12.74L722.98,12.74z"/>
	</g>
	<path class="st0" d="M165.04,68.55c-0.37,0.02-0.73,0.05-1.11,0.05c-5.54,0-9.9-2.02-13.1-6.06c-3.2-4.04-4.8-9.22-4.8-15.55V33.37
		c0-6.26,1.6-11.4,4.8-15.42s7.55-6.03,13.05-6.03c5.71,0,10.24,2.01,13.59,6.03c3.35,4.02,5.03,9.16,5.03,15.42v13.62
		c0,3.3-0.46,6.27-1.35,8.94l8.97,8.97c0.95-1.55,1.79-3.2,2.49-4.96c1.58-3.99,2.37-8.3,2.37-12.95V33.47
		c0-9.15-2.89-16.75-8.67-22.8s-13.26-9.08-22.44-9.08c-8.97,0-16.27,3.03-21.89,9.08s-8.43,13.65-8.43,22.8v13.51
		c0,9.18,2.81,16.79,8.43,22.82s12.94,9.05,21.95,9.05c2.2,0,4.33-0.18,6.4-0.54c1.24-0.22,2.45-0.52,3.61-0.88L165.04,68.55z"/>
	<g>
		<path class="st0" d="M194.18,88.4c-1.3,0-2.6-0.5-3.59-1.49l-28.44-28.44c-1.98-1.98-1.98-5.2,0-7.18s5.2-1.98,7.18,0l28.44,28.44
			c1.98,1.98,1.98,5.2,0,7.18C196.78,87.91,195.48,88.4,194.18,88.4z"/>
	</g>
</g>
<circle class="st0" cx="734.27" cy="71.51" r="6.27"/>
</svg>
