<?xml version="1.0" encoding="utf-8"?>
<!-- Generator: Adobe Illustrator 23.0.1, SVG Export Plug-In . SVG Version: 6.00 Build 0)  -->
<svg version="1.1" id="Layer_1" xmlns="http://www.w3.org/2000/svg" xmlns:xlink="http://www.w3.org/1999/xlink" x="0px" y="0px"
	 viewBox="0 0 728 90" style="enable-background:new 0 0 728 90;" xml:space="preserve">
<style type="text/css">
	.st0{fill:#FFFFFF;}
</style>
<g>
	<path class="st0" d="M5.9,4.51h28.5c19.34,0,29.64,11.54,29.64,25.79c0,9.05-4.89,17.58-13.83,21.84L65.08,71.9H51.04L39.29,55.48
		C37.42,55.79,35.34,56,33.26,56H17.97v15.91H5.9V4.51z M34.92,45.6c9.67,0,16.43-6.86,16.43-15.29c0-8.63-6.76-15.5-16.33-15.5
		H17.97V45.6H34.92z"/>
	<path class="st0" d="M75.27,4.51h52.31v10.4H87.33v16.43h37.96v10.3H87.33V61.5h41.71v10.4H75.27V4.51z"/>
	<path class="st0" d="M217.23,4.51h28.5c19.34,0,29.64,11.54,29.64,25.79c0,9.05-4.89,17.58-13.83,21.84l14.87,19.76h-14.04
		l-11.75-16.43c-1.87,0.31-3.95,0.52-6.03,0.52H229.3V71.9h-12.06V4.51H217.23z M246.25,45.6c9.67,0,16.43-6.86,16.43-15.29
		c0-8.63-6.76-15.5-16.33-15.5h-17.06V45.6H246.25z"/>
	<path class="st0" d="M285.87,45.08V4.51h12.06v39.94c0,11.13,6.24,17.47,16.64,17.47s16.54-6.34,16.54-17.47V4.51h12.06v40.56
		c0,17.37-11.23,27.87-28.6,27.87S285.87,62.44,285.87,45.08z"/>
	<path class="st0" d="M356.79,4.51h12.06V71.9h-12.06V4.51z"/>
	<path class="st0" d="M402.03,14.92h-23.71V4.51h59.49v10.4H414.1V71.9h-12.06V14.92H402.03z"/>
	<path class="st0" d="M447.27,4.51h10.5l9.36,13.1c4.78,6.66,15.29,21.63,15.29,21.63s10.5-14.87,15.19-21.53l9.36-13.21h10.5v67.39
		h-12.06v-46.8c0,0-2.08,3.74-6.45,10.09l-16.54,23.71l-16.74-23.92c-4.16-6.03-6.34-9.88-6.34-9.88v46.8h-12.06L447.27,4.51
		L447.27,4.51z"/>
	<path class="st0" d="M531.82,4.51h52.31v10.4h-40.25v16.43h37.96v10.3h-37.96V61.5h41.71v10.4h-53.77V4.51z"/>
	<path class="st0" d="M595.26,4.51h12.27l24.13,33.07c4.78,6.55,10.3,15.91,10.3,15.91V4.51h12.06V71.9h-12.48l-22.98-31.4
		c-5.82-8.01-11.23-17.16-11.23-17.16v48.57h-12.06V4.51H595.26z"/>
	<path class="st0" d="M687.2,14.92h-23.71V4.51h59.49v10.4h-23.71V71.9H687.2V14.92z"/>
	<path class="st0" d="M173.04,61.83c-0.96,0.12-1.93,0.19-2.92,0.19c-13.21,0-22.98-10.82-22.98-23.82s9.78-23.82,22.98-23.82
		c13,0,22.78,10.82,22.78,23.82c0,1.23-0.09,2.44-0.26,3.62l10.1,10.1c1.77-4.19,2.75-8.82,2.75-13.72
		c0-19.24-15.08-34.74-35.47-34.74s-35.47,15.5-35.47,34.74c0,19.34,15.08,34.74,35.47,34.74c4.33,0,8.4-0.7,12.15-1.98
		L173.04,61.83z"/>
	<g>
		<path class="st0" d="M211,86c-1.54,0-3.07-0.59-4.24-1.76l-32-32c-2.34-2.34-2.34-6.14,0-8.48s6.14-2.34,8.48,0l32,32
			c2.34,2.34,2.34,6.14,0,8.48C214.07,85.41,212.54,86,211,86z"/>
	</g>
</g>
</svg>
